/* XPM */
static char *Untitled[] = {
/* columns rows colors chars-per-pixel */
"64 64 19 1",
"  c #000000",
". c #010000",
"X c #000100",
"o c #010101",
"O c #000002",
"+ c #D1533A",
"@ c #D1553B",
"# c #D2543B",
"$ c #D4543B",
"% c #D1533C",
"& c #D4533D",
"* c #D4533E",
"= c #D1553D",
"- c #D3553C",
"; c #D2543D",
": c #D1543E",
"> c #D2543E",
", c #D3553E",
"< c #D5543E",
/* pixels */
"+;;;;;;;;;;;;;;;; ;;;;;;;;;;;+;;;;% ;;,;;;;%;;;;;;;;;; ;;#;;;;;;",
";;&&;;;;;;;;;;;;; ;;;;;;;;;;;;&;;;, ;;;;;&;;;;;&;;;;;; ;;;;;;<;;",
";;;;;;;;;;;;;;;;# ;;;,;;;;;;;;;;;;; ;;;;;;;;;;;;;;;;;; #;;;;;;;;",
";;;;;;;;;;;;;;;;; ;;;@;<;;;;;;;;;<; ;;;;,;;;;;;;<;;;;; ;;;;;;;;;",
";;;;%;%;;;;;;;;;; ;;;;<;;;;;;;;;;;; ;;;;;;%;;;;;;;;;;; ;;;#;;;;;",
"                                                                ",
"&;;;;;; ;;;;;;;;;;;;;;;;;; ;;<;;;;;;;;;;;;;< ;;;;;;;;;<;;<;;;;O;",
";;;;;;; ;;;;;;;;;;;;;;;;;; ;;;;;;;;;;;;;;;;; ;;;;;;;;;;;;;;;;; ;",
";;;;<;; ;;;;;;;;;#;;;;;;;; ;;;;;;;;#;;;;<;;; ;;;;;;;;#;;;;&;;; ;",
";;;;<;; ;;;;;;;;#;;%;;;;;< ;;;;;;;<;;;#;%%;; ;;;;;;#;;;<;;&;;; %",
"%%;;%<; ;;;;;;;;;%;;;;;;+& <;;;;;;;;;;;;&;;& ;;;;%;%;%;;;<%;;; ;",
"                        O                                       ",
";;<;;;;;;;;;;;;;; ;;;;;;;;;;<;;;;;; ;;;;;&;;;;;;;;;;; ;;;;;;;;;,",
";;;;;$;;;;;;;;;;; ;;;;;;;;;<;#;;;;; ;;;;%,;;;;$;;;;;; ;;$;;;;;%>",
";;;;;;;;;;;;;;;;; ;;;;;;;;;;;;;;;;; ;;;;;;;;;;;;;;;;; ;;;;;;;;,%",
";;%;;;;;;;;;;;;;; ;;;;;;;#;;;;;;;;; ;;;;;%;;;;;#;;;;; ;;;;;;;%,%",
";;;;;;;;,;;;;;;;; ;;;<#&;;;;;,;;;&; ;;;<;;;;,;;;;;<;< <;;;;;;;,;",
"         O                     O          O                     ",
";;;;;;;; ;;;;;<;;;;;%;;;<; ;;;;;;;;;;;;;;;,, &;;;;;;;;;;;<;;<; ;",
";;;;;;;; ;;;,;;;;;;;;;;;;; ;;;;;;;;;;;;;;;%, ;;,;;;;;;;;;;;;;; ;",
";;;;;;;; <;;;;;;;;;;;;;&;; ;;;;&;&;;;;;;;;&; ,,;;;;;<;;;,;;<;; ;",
";;;;;;;; ;;;;;;;;;;;;;;;;; ;;;;;;;;;;;;;;;;; ;;;;;;;;;;;;,;;;; ;",
";;;;;;;; ;;;;;;;;;;;;;;;;; ;;;;;;;#;;;;;;;;; ;;%;;;;;;;#;;;;;; ;",
"                                                                ",
";;;;;;;;;;;;;;;%; ;;;;;;;;;;;#;;;;; ;;,;;;;#;;;;;;;;; ;;;#;;;;;;",
";;;;;;;;;;;;&*;;; ;;;;;;;;;;;;&;;;, ;;;;;<;;;;;%;;;;, ;;;;;;;<;;",
";;;;;;;;;;;;;;;;; ;;;;;;;;;;;;;;;;; ;;;;;;;;;;;;;;;#, ;;;;;;;;;;",
";;;;;;;;;;;;;;;;@ ;;;;;<;,;;;;;;;;; #;;;;;;;;;;;;;#;& ;;;;;;;;;;",
";;;;;;;;;;;+;;;;; ;;;;@;;;;;;;;;;;; ;;;;;;;;;;;;;;;;; ;;;;%%;;;;",
"                 o                                              ",
";;;;;;;; ;;;;;;&;;;;;;;;;; ;;<;;;;;<;;;;;;;<O;;;;;;,;<;%;&;;;; ;",
";;;;;;;; ;;;;;;;;;;;;;;;;; ;;;;;;;;;;;;@;;;; ;;;;;;;;;;;;;;;;; ;",
";;;;;;;; ;;&;;;;;#;;;;;;;; ;;;;;;;;#;;;;&;;; ;;;;;;;;;;;;;&;;; ;",
";;;;;;;; ;;&;;;;#;;%;;;;;< ;;;;;;;;;;;#;%;;; ;;;;;;;;;;%;;&;;; %",
";;;;;;;; ;;<;;;;%%;;;;;;+& <;;;;;;;;;;;;<;;< ;;;;%;;;;;;<<%;;; ;",
"                        O                                       ",
";;;;;;;;;;;;;<;;; ;;;;;;;;;;<;;;;;; ;;;;;<;;;;;;;;;;; ;;;;;;;;;,",
";;;;;;;;;;<;;;;#; ;;;;;;;;;<;#;;;;; ;;;;;;;#;;$;;;;;; ;;$#;;;;%,",
";;;;;;;;;;;;;;;;; ;;;;;;;;;;;;;;;;; ;;;;;;;;;;;;;;;;; ;;;;;;;;;;",
";;;;;;;;;;;#;;;;; ;;;;;;;#;;;;;;;;; ;;;;#;;;;;;;;;;;; ;;;;;;;;;%",
";;;;;;;;,;;;;;;;; ;;;&;&;;;;;,;;;<; #;;<;;;;;;;;;;;;& <;;;;;;;,;",
"         O                     O                                ",
";;;;;;;; ;;;;;<;;;;;%;;;<; ;;;;;;;;;;;;;;;;; <;;;;;;;;;;;<;;<; ;",
";;;;;;;; ;;;,;;;;;;;;;;;;; ;;;;;;;;%;;;;;;;, ;;,;;;;;;;;;;;;;; ;",
";;;;;;;;o<;;;;;;;;;;;;;&;; ;;;;&;&;;;;;;;;<; ;;;;;;;<+;;,;;<;; ;",
";;;;;;;; ;;;;;;;;;;;;;;;;; ;;;;;;;;;;;;;;;;; ;;;;;;;;;;;;,;;;; ;",
";;;;;;;; ;;;;;;#;;;;;;;;;; ;;;;;;;;;;;;;;;;; ;;;;;;;;;;;;;;;;; ;",
"                                                                ",
";;;;;;;;;;;;;;;+; ;;;;;;;;;;;#;;;;; ;;;;;;;%;;;;;;;;; ;;;%;;;;;;",
";;;;;;;;;;;;<<;;; ;;;;;;;;;;;;&;;;; ;;;;;&;;;;;&;;;;, ;,;;;;;<;%",
";;;;;;;;;;;;;;;;# ;;;;;;;;;;;;;;;;; ;;;;;;;;;;;;;@;;; ;;;;;;;;;;",
";;;;;;;;;;;;;;;;; ;;;,;<;;;;;;;;;;; #;;,;;;;;;;;;;#;< ;;;;;;;;;;",
";;;;;;;;;%;+;;;;; ;;;;<;;;;;;;;;;;; ,;;;;;%;;;;;;;,;; ;;;;%%;;;,",
"                                                  o             ",
";;;;;;;; ;;;;;;&;;;;;;;;;; ;;<;;;;;<;;;;;;;&O;;;;;;@;<;;;&;;;;O;",
";;;;;;;; ;;;;;;;;;;;;;;;;; ;;;;;;;;;;;;;;;;; ;;;;;;;;;@,;;;;;; ;",
";;;;;;;; ;;&%;;;;#;;;;;;;< ;;;%;;;;#;;;;&;;; ;;;;;;;;#;;;;&;;; ;",
";;;;;;;; ;;%;;;;#;;%;;;;;< ;;;;;;;;;;;#;&%;; ;;;;;;#;;;<;;&;;; %",
";;;;;;;; ;,<;;%&;%;;;;;;%% ;;&;;;;;;;;%;&;;& ;,;;%;%;%;;;<&;;; ;",
"           O  O         O                                       ",
";;;;;;;;;;;;;*%;; ;;;;;;;;;;&;;;;;; ;;;;;%;;;;;;;;;;; ;;;;;;;;;,",
";;;;;;;;;;$;;,;;; ;;;;;;;;;<;#;;;;; ;;;;;;;;;;$;;;;;; ;;$;;;;;%>",
";;;;;;;;;;;;;;;;; ;;;;;;;;;;;;;;;;; ;;;;;;;;;;;;;;;;; ;;;;;;;;,%",
";;;;;;;;;;;#;;;;; ;;;;;;;#;;;;;;;;; ;;;;#;;;;;;#;;;;; ;;;;;;;%,%"
};
