/* XPM */
static char * C:\Users\Leo\Documents\wood_xpm[] = {
"64 64 14 1",
" 	c None",
".	c #735E39",
"+	c #7C623E",
"@	c #695433",
"#	c #4C3D26",
"$	c #805E36",
"%	c #664F2F",
"&	c #785836",
"*	c #5D462A",
"=	c #443321",
"-	c #493824",
";	c #534028",
">	c #4F3C27",
",	c #382B1D",
"...+@@+@...@#@@....+@@+@...@#@@....+@@+@...@#@@....+@@+@...@#@@.",
"$%%%%$$&%$$$$$$%$%%%%$$&%$$$$$$%$%%%%$$&%$$$$$$%$%%%%$$&%$$$$$$%",
"$$&*&&%%%%%&%&$%$$&*&&%%%%%&%&$%$$&*&&%%%%%&%&$%$$&*&&%%%%%&%&$%",
"$$%%%%&&*$$&$$$%$$%%%%&&*$$&$$$%$$%%%%&&*$$&$$$%$$%%%%&&*$$&$$$%",
"===-------====--===-------====--===-------====--===-------====--",
"$%%%%$$%$%%;&&&$$%%%%$$%$%%;&&&$$%%%%$$%$%%;&&&$$%%%%$$%$%%;&&&$",
"%%;&&&$%&&&&%%%%%%;&&&$%&&&&%%%%%%;&&&$%&&&&%%%%%%;&&&$%&&&&%%%%",
"$$$&$$$%%%;$$$$$$$$&$$$%%%;$$$$$$$$&$$$%%%;$$$$$$$$&$$$%%%;$$$$$",
"--=====---====----=====---====----=====---====----=====---====--",
"$$$$$;%$$&&&$$$%$$$$$;%$$&&&$$$%$$$$$;%$$&&&$$$%$$$$$;%$$&&&$$$%",
"%%%%%$&&%%%;$%%%%%%%%$&&%%%;$%%%%%%%%$&&%%%;$%%%%%%%%$&&%%%;$%%%",
"$&&&$$%%%%&&&&&%$&&&$$%%%%&&&&&%$&&&$$%%%%&&&&&%$&&&$$%%%%&&&&&%",
"-=--===-----===--=--===-----===--=--===-----===--=--===-----===-",
"$$$$$%$%%-%%&$$$$$$$$%$%%-%%&$$$$$$$$%$%%-%%&$$$$$$$$%$%%-%%&$$$",
"&%;$$$$%$&&%%%%&&%;$$$$%$&&%%%%&&%;$$$$%$&&%%%%&&%;$$$$%$&&%%%%&",
"$$%%%$$%$$%&$$$$$$%%%$$%$$%&$$$$$$%%%$$%$$%&$$$$$$%%%$$%$$%&$$$$",
"--->==>=---=,==---->==>=---=,==---->==>=---=,==---->==>=---=,==-",
"...+@@+@...@#@@....+@@+@...@#@@....+@@+@...@#@@....+@@+@...@#@@.",
"$%%%%$$&%$$$$$$%$%%%%$$&%$$$$$$%$%%%%$$&%$$$$$$%$%%%%$$&%$$$$$$%",
"$$&*&&%%%%%&%&$%$$&*&&%%%%%&%&$%$$&*&&%%%%%&%&$%$$&*&&%%%%%&%&$%",
"$$%%%%&&*$$&$$$%$$%%%%&&*$$&$$$%$$%%%%&&*$$&$$$%$$%%%%&&*$$&$$$%",
"===-------====--===-------====--===-------====--===-------====--",
"$%%%%$$%$%%;&&&$$%%%%$$%$%%;&&&$$%%%%$$%$%%;&&&$$%%%%$$%$%%;&&&$",
"%%;&&&$%&&&&%%%%%%;&&&$%&&&&%%%%%%;&&&$%&&&&%%%%%%;&&&$%&&&&%%%%",
"$$$&$$$%%%;$$$$$$$$&$$$%%%;$$$$$$$$&$$$%%%;$$$$$$$$&$$$%%%;$$$$$",
"--=====---====----=====---====----=====---====----=====---====--",
"$$$$$;%$$&&&$$$%$$$$$;%$$&&&$$$%$$$$$;%$$&&&$$$%$$$$$;%$$&&&$$$%",
"%%%%%$&&%%%;$%%%%%%%%$&&%%%;$%%%%%%%%$&&%%%;$%%%%%%%%$&&%%%;$%%%",
"$&&&$$%%%%&&&&&%$&&&$$%%%%&&&&&%$&&&$$%%%%&&&&&%$&&&$$%%%%&&&&&%",
"-=--===-----===--=--===-----===--=--===-----===--=--===-----===-",
"$$$$$%$%%-%%&$$$$$$$$%$%%-%%&$$$$$$$$%$%%-%%&$$$$$$$$%$%%-%%&$$$",
"&%;$$$$%$&&%%%%&&%;$$$$%$&&%%%%&&%;$$$$%$&&%%%%&&%;$$$$%$&&%%%%&",
"$$%%%$$%$$%&$$$$$$%%%$$%$$%&$$$$$$%%%$$%$$%&$$$$$$%%%$$%$$%&$$$$",
"--->==>=---=,==---->==>=---=,==---->==>=---=,==---->==>=---=,==-",
"...+@@+@...@#@@....+@@+@...@#@@....+@@+@...@#@@....+@@+@...@#@@.",
"$%%%%$$&%$$$$$$%$%%%%$$&%$$$$$$%$%%%%$$&%$$$$$$%$%%%%$$&%$$$$$$%",
"$$&*&&%%%%%&%&$%$$&*&&%%%%%&%&$%$$&*&&%%%%%&%&$%$$&*&&%%%%%&%&$%",
"$$%%%%&&*$$&$$$%$$%%%%&&*$$&$$$%$$%%%%&&*$$&$$$%$$%%%%&&*$$&$$$%",
"===-------====--===-------====--===-------====--===-------====--",
"$%%%%$$%$%%;&&&$$%%%%$$%$%%;&&&$$%%%%$$%$%%;&&&$$%%%%$$%$%%;&&&$",
"%%;&&&$%&&&&%%%%%%;&&&$%&&&&%%%%%%;&&&$%&&&&%%%%%%;&&&$%&&&&%%%%",
"$$$&$$$%%%;$$$$$$$$&$$$%%%;$$$$$$$$&$$$%%%;$$$$$$$$&$$$%%%;$$$$$",
"--=====---====----=====---====----=====---====----=====---====--",
"$$$$$;%$$&&&$$$%$$$$$;%$$&&&$$$%$$$$$;%$$&&&$$$%$$$$$;%$$&&&$$$%",
"%%%%%$&&%%%;$%%%%%%%%$&&%%%;$%%%%%%%%$&&%%%;$%%%%%%%%$&&%%%;$%%%",
"$&&&$$%%%%&&&&&%$&&&$$%%%%&&&&&%$&&&$$%%%%&&&&&%$&&&$$%%%%&&&&&%",
"-=--===-----===--=--===-----===--=--===-----===--=--===-----===-",
"$$$$$%$%%-%%&$$$$$$$$%$%%-%%&$$$$$$$$%$%%-%%&$$$$$$$$%$%%-%%&$$$",
"&%;$$$$%$&&%%%%&&%;$$$$%$&&%%%%&&%;$$$$%$&&%%%%&&%;$$$$%$&&%%%%&",
"$$%%%$$%$$%&$$$$$$%%%$$%$$%&$$$$$$%%%$$%$$%&$$$$$$%%%$$%$$%&$$$$",
"--->==>=---=,==---->==>=---=,==---->==>=---=,==---->==>=---=,==-",
"...+@@+@...@#@@....+@@+@...@#@@....+@@+@...@#@@....+@@+@...@#@@.",
"$%%%%$$&%$$$$$$%$%%%%$$&%$$$$$$%$%%%%$$&%$$$$$$%$%%%%$$&%$$$$$$%",
"$$&*&&%%%%%&%&$%$$&*&&%%%%%&%&$%$$&*&&%%%%%&%&$%$$&*&&%%%%%&%&$%",
"$$%%%%&&*$$&$$$%$$%%%%&&*$$&$$$%$$%%%%&&*$$&$$$%$$%%%%&&*$$&$$$%",
"===-------====--===-------====--===-------====--===-------====--",
"$%%%%$$%$%%;&&&$$%%%%$$%$%%;&&&$$%%%%$$%$%%;&&&$$%%%%$$%$%%;&&&$",
"%%;&&&$%&&&&%%%%%%;&&&$%&&&&%%%%%%;&&&$%&&&&%%%%%%;&&&$%&&&&%%%%",
"$$$&$$$%%%;$$$$$$$$&$$$%%%;$$$$$$$$&$$$%%%;$$$$$$$$&$$$%%%;$$$$$",
"--=====---====----=====---====----=====---====----=====---====--",
"$$$$$;%$$&&&$$$%$$$$$;%$$&&&$$$%$$$$$;%$$&&&$$$%$$$$$;%$$&&&$$$%",
"%%%%%$&&%%%;$%%%%%%%%$&&%%%;$%%%%%%%%$&&%%%;$%%%%%%%%$&&%%%;$%%%",
"$&&&$$%%%%&&&&&%$&&&$$%%%%&&&&&%$&&&$$%%%%&&&&&%$&&&$$%%%%&&&&&%",
"-=--===-----===--=--===-----===--=--===-----===--=--===-----===-"};
